# xmcd CD database file
#
# Track frame offsets:
#	150
#	16515
#	29750
#	45747
#	59850
#	75315
#	86837
#	107585
#	122512
#	136782
#	151965
#	170195
#	185182
#
# Disc length: 2758 seconds
#
# Revision: 0
# Processed by: cddbd v1.4PL0 Copyright (c) Steve Scherf et al.
# Submitted via: CDex 1.40Beta9
#
DISCID=ab0ac40d
DTITLE=The Honeymen - Nothing But The Devil
DYEAR=1900
DGENRE=Blues
TTITLE0=Get Throught Today
TTITLE1=You Don't Love Me
TTITLE2=Lover Man
TTITLE3=32/20 Blues
TTITLE4=Mellow Down Easy
TTITLE5=Boogie Disease
TTITLE6=Low Trick
TTITLE7=If You Think I Lost You
TTITLE8=Steady Rolling Man
TTITLE9=Going Away
TTITLE10=You Don't Have To Go
TTITLE11=Nothing But Fine
TTITLE12=Nothing But The Devil...
EXTD=ID3G: 0
EXTT0=
EXTT1=
EXTT2=
EXTT3=
EXTT4=
EXTT5=
EXTT6=
EXTT7=
EXTT8=
EXTT9=
EXTT10=
EXTT11=
EXTT12=
PLAYORDER=
